<svg width="630" height="640" viewBox="0 0 630 640" fill="none" xmlns="http://www.w3.org/2000/svg">
<path d="M343.072 86.9809H443.068V253.257H343.072V86.9809Z" fill="#3EC1F3"/>
<path d="M472.364 86.9809H443.068V253.257H508.746V127.877C508.746 117.031 504.913 106.629 498.09 98.9591C491.267 91.2896 482.013 86.9809 472.364 86.9809Z" fill="#3EC1F3"/>
<path d="M477.682 220.668C469.665 220.668 463.166 212.684 463.166 202.836C463.166 192.987 469.665 185.003 477.682 185.003C485.699 185.003 492.198 192.987 492.198 202.836C492.198 212.684 485.699 220.668 477.682 220.668Z" fill="#F4E6D8"/>
<path d="M509.502 158.674L444.313 128.929" stroke="#3546AB" stroke-width="4" stroke-miterlimit="10" stroke-linecap="round"/>
<path d="M444.249 86.9809V253.257" stroke="#3546AB" stroke-width="4" stroke-miterlimit="10"/>
<path d="M76.806 523.287V459.444L111.124 420.202H207.57L241.887 459.444V518.637H362.002V494.021C400.463 489.363 388.632 457.441 409.931 457.441H447.799C450.558 457.429 453.263 458.311 455.589 459.981L509.05 422.842H564.073L633.005 470.725H632.856V531.014L679.153 563.175V618.378H42.4886V562.515L76.806 523.287Z" fill="#F5EBDD"/>
<path d="M19.4082 618.393H56.6882C56.6882 606.828 48.3428 595.119 38.0482 595.119C27.7536 595.119 19.4082 606.828 19.4082 618.393Z" fill="#FFB494"/>
<path d="M-1.33514e-05 618.393H27.6954C27.6954 609.803 21.4928 601.104 13.851 601.104C6.20907 601.104 -1.33514e-05 609.803 -1.33514e-05 618.393Z" fill="#FFB494"/>
<path d="M544.051 339.077C525.979 332.787 502.744 323.747 432.037 388.744C361.33 453.741 334.577 411.235 341.813 401.411C347.622 393.503 380.061 414.84 355.915 443.606C332.97 470.957 265.723 444.796 247.283 428.052C221.04 404.226 183.47 385.487 150.353 384.137" stroke="#FFB494" stroke-width="4" stroke-linecap="round" stroke-linejoin="round" stroke-dasharray="12 12"/>
<path d="M495.135 470.74L564.073 422.857" stroke="#FFB494" stroke-width="4" stroke-linecap="round" stroke-linejoin="round"/>
<path d="M632.211 470.74H494.986V617.667" stroke="#FFB494" stroke-width="4" stroke-linecap="round" stroke-linejoin="round"/>
<path d="M633.889 552.88H496.025" stroke="#FFB494" stroke-width="4" stroke-linecap="round" stroke-linejoin="round"/>
<path d="M243.372 574.834H145.738" stroke="#FFB494" stroke-width="4" stroke-linecap="round" stroke-linejoin="round"/>
<path d="M495.134 470.74H462.966" stroke="#FFB494" stroke-width="4" stroke-linecap="round" stroke-linejoin="round"/>
<path d="M241.242 459.437H145.441V617.667" stroke="#FFB494" stroke-width="4" stroke-linecap="round" stroke-linejoin="round"/>
<path d="M145.441 616.942V459.437H78.0971" stroke="#FFB494" stroke-width="4" stroke-linecap="round" stroke-linejoin="round"/>
<path d="M399.282 495.348H362.647" stroke="#FFB494" stroke-width="4" stroke-linecap="round" stroke-linejoin="round"/>
<path d="M111.124 617.667V562.529H43.502" stroke="#FFB494" stroke-width="4" stroke-linecap="round" stroke-linejoin="round"/>
<path d="M111.498 420.622L145.441 459.436" stroke="#FFB494" stroke-width="4" stroke-linecap="round" stroke-linejoin="round"/>
<path d="M145.441 523.287L111.124 562.529" stroke="#FFB494" stroke-width="4" stroke-linecap="round" stroke-linejoin="round"/>
<path d="M77.7999 521.626H145.144" stroke="#FFB494" stroke-width="4" stroke-linecap="round" stroke-linejoin="round"/>
<path d="M447.076 458.769C468.375 458.769 456.544 490.691 495.005 495.349H399.133C437.614 490.698 425.777 458.769 447.076 458.769Z" stroke="#FFB494" stroke-width="4" stroke-linecap="round" stroke-linejoin="round"/>
<path d="M495.005 616.942V495.356H399.153V617.667" stroke="#FFB494" stroke-width="4" stroke-linecap="round" stroke-linejoin="round"/>
<path d="M399.282 616.942V530.6H243.366V617.667" stroke="#FFB494" stroke-width="4" stroke-linecap="round" stroke-linejoin="round"/>
<path d="M399.004 528.975L362.989 517.295" stroke="#FFB494" stroke-width="4" stroke-linecap="round" stroke-linejoin="round"/>
<path d="M243.366 519.355V530.6H399.282" stroke="#FFB494" stroke-width="4" stroke-linecap="round" stroke-linejoin="round"/>
<path d="M368.308 550.559H368.153C365.352 550.559 362.667 551.809 360.686 554.035C358.706 556.261 357.594 559.28 357.594 562.428V618.4H378.893V562.428C378.893 560.867 378.619 559.321 378.087 557.879C377.554 556.437 376.774 555.127 375.791 554.025C374.808 552.922 373.641 552.049 372.357 551.454C371.072 550.859 369.697 550.555 368.308 550.559Z" fill="#FFB494"/>
<path d="M273.042 550.559H272.862C270.061 550.559 267.375 551.809 265.395 554.035C263.415 556.261 262.302 559.28 262.302 562.428V618.4H283.602V562.428C283.602 559.28 282.489 556.261 280.509 554.035C278.529 551.809 275.843 550.559 273.042 550.559Z" fill="#FFB494"/>
<path d="M320.675 550.559H320.494C317.694 550.559 315.008 551.809 313.028 554.035C311.048 556.261 309.935 559.28 309.935 562.428V618.4H331.234V562.428C331.234 559.28 330.122 556.261 328.142 554.035C326.161 551.809 323.476 550.559 320.675 550.559Z" fill="#FFB494"/>
<path d="M75.7089 577.823H75.5281C72.7276 577.823 70.0419 579.073 68.0616 581.299C66.0814 583.525 64.9689 586.544 64.9689 589.692V618.393H86.2681V589.692C86.2681 586.544 85.1556 583.525 83.1753 581.299C81.1951 579.073 78.5093 577.823 75.7089 577.823Z" fill="#FFB494"/>
<path d="M604.541 577.823H604.38C601.579 577.823 598.894 579.073 596.913 581.299C594.933 583.525 593.821 586.544 593.821 589.692V618.393H615.12V589.692C615.12 588.133 614.847 586.59 614.316 585.15C613.785 583.71 613.008 582.401 612.027 581.299C611.047 580.197 609.883 579.323 608.601 578.726C607.32 578.13 605.947 577.823 604.561 577.823H604.541Z" fill="#FFB494"/>
<path d="M523.482 577.823H523.301C521.913 577.821 520.539 578.127 519.256 578.722C517.974 579.318 516.808 580.192 515.826 581.294C514.844 582.397 514.066 583.706 513.534 585.147C513.003 586.588 512.729 588.132 512.729 589.692V618.393H534.028V589.692C534.028 586.547 532.917 583.53 530.94 581.304C528.963 579.079 526.28 577.827 523.482 577.823Z" fill="#FFB494"/>
<path d="M564.015 577.823H563.834C561.034 577.823 558.348 579.073 556.368 581.299C554.387 583.525 553.275 586.544 553.275 589.692V618.393H574.574V589.692C574.574 586.544 573.462 583.525 571.481 581.299C569.501 579.073 566.815 577.823 564.015 577.823Z" fill="#FFB494"/>
<path d="M593.808 492.026H615.107V532.596H593.808V492.026Z" fill="#FFB494"/>
<path d="M512.742 492.026H534.041V532.596H512.742V492.026Z" fill="#FFB494"/>
<path d="M553.275 492.026H574.574V532.596H553.275V492.026Z" fill="#FFB494"/>
<path d="M455.073 515.967H472.771V545.894H455.073V515.967Z" fill="#FFB494"/>
<path d="M421.394 515.967H439.092V545.894H421.394V515.967Z" fill="#FFB494"/>
<path d="M455.073 568.515H472.771V598.442H455.073V568.515Z" fill="#FFB494"/>
<path d="M421.394 568.515H439.092V598.442H421.394V568.515Z" fill="#FFB494"/>
<path d="M202.413 476.065H220.111V505.991H202.413V476.065Z" fill="#FFB494"/>
<path d="M168.735 476.065H186.432V505.991H168.735V476.065Z" fill="#FFB494"/>
<path d="M100.687 476.065H118.385V505.991H100.687V476.065Z" fill="#FFB494"/>
<path d="M202.413 528.605H220.111V558.532H202.413V528.605Z" fill="#FFB494"/>
<path d="M168.735 528.605H186.432V558.532H168.735V528.605Z" fill="#FFB494"/>
<path d="M540.695 301.474C540.695 316.441 554.895 333.73 560.523 333.73C566.151 333.73 580.344 316.441 580.344 301.474C580.25 295.634 578.121 290.068 574.413 285.975C570.705 281.882 565.716 279.589 560.52 279.589C555.323 279.589 550.334 281.882 546.627 285.975C542.919 290.068 540.789 295.634 540.695 301.474Z" fill="#FFB494"/>
<path d="M560.523 308.46C557.09 308.46 554.308 305.333 554.308 301.474C554.308 297.615 557.09 294.487 560.523 294.487C563.956 294.487 566.739 297.615 566.739 301.474C566.739 305.333 563.956 308.46 560.523 308.46Z" fill="white"/>
<path d="M107.574 350.627C107.574 365.594 121.773 382.882 127.395 382.882C133.017 382.882 147.216 365.594 147.216 350.627C147.216 344.717 145.128 339.05 141.41 334.872C137.693 330.694 132.652 328.346 127.395 328.346C122.138 328.346 117.096 330.694 113.379 334.872C109.662 339.05 107.574 344.717 107.574 350.627Z" fill="#FFB494"/>
<path d="M127.395 357.613C123.962 357.613 121.179 354.485 121.179 350.626C121.179 346.768 123.962 343.64 127.395 343.64C130.827 343.64 133.61 346.768 133.61 350.626C133.61 354.485 130.827 357.613 127.395 357.613Z" fill="white"/>
<path d="M379.261 206.557C425.196 238.124 441.17 326.054 450.903 358.135C461.43 392.829 484.614 392.038 511.515 402.137C538.417 412.236 537.417 434.254 537.417 434.254C543.704 439.07 549.713 444.33 555.405 450.005L521.345 498.932C513.31 492.7 501.382 484.887 485.021 473.779C451.226 450.832 420.975 429.285 401.45 405.343C381.926 381.402 330.615 276.423 330.615 276.423L379.261 206.557Z" fill="#4856DF"/>
<path d="M521.345 498.932L555.411 450.012C570.643 465.248 579.77 479.758 584.359 488.202L536.332 557.168C529.568 543.384 534.945 523.984 534.396 515.517C534.028 510.417 529.91 505.578 521.345 498.932Z" fill="#30242A"/>
<path d="M588.089 495.806L540.87 563.618C539.052 561.771 537.524 559.593 536.352 557.175L584.372 488.21C585.732 490.664 586.973 493.2 588.089 495.806Z" fill="#3EC1F3"/>
<path d="M538.811 501.835L529.665 507.559" stroke="white" stroke-width="4" stroke-linecap="round" stroke-linejoin="round"/>
<path d="M542.883 512.18L533.718 514.516" stroke="white" stroke-width="4" stroke-linecap="round" stroke-linejoin="round"/>
<path d="M526.528 453.748L542.844 468.084" stroke="#3EC1F3" stroke-width="4" stroke-miterlimit="10" stroke-linecap="round"/>
<path d="M534.79 441.872L551.106 456.208" stroke="#3EC1F3" stroke-width="4" stroke-miterlimit="10" stroke-linecap="round"/>
<path d="M518.267 465.625L534.583 479.961" stroke="#3EC1F3" stroke-width="4" stroke-miterlimit="10" stroke-linecap="round"/>
<path d="M510.005 477.501L526.322 491.837" stroke="#3EC1F3" stroke-width="4" stroke-miterlimit="10" stroke-linecap="round"/>
<path d="M538.894 434.886L503.092 486.367" stroke="#3EC1F3" stroke-width="4" stroke-miterlimit="10" stroke-linecap="round"/>
<path d="M365.042 343.299C372.819 329.515 380.429 314.279 386.212 298.558" stroke="#30242A" stroke-width="4" stroke-linecap="round" stroke-linejoin="round"/>
<path d="M352.243 13.1544C349.138 13.1544 346.621 10.3252 346.621 6.83531C346.621 3.34539 349.138 0.516235 352.243 0.516235C355.348 0.516235 357.865 3.34539 357.865 6.83531C357.865 10.3252 355.348 13.1544 352.243 13.1544Z" fill="#3546AB"/>
<path d="M334.397 98.9516L334.784 91.6096C327.265 92.6688 321.695 91.4137 317.712 89.1211L334.784 73.6753C334.784 73.6753 328.872 71.02 332.422 57.0469L313.42 49.2841C314.421 46.3821 315.086 39.3883 317.002 31.8722L328.317 37.4077C330.958 43.1055 334.746 48.0316 339.38 51.7943C341.294 49.5692 343.431 47.602 345.75 45.9323C346.06 45.7074 346.395 45.497 346.705 45.2866H346.737C347.054 45.0835 347.383 44.8876 347.699 44.699H347.751C348.073 44.5176 348.396 44.3362 348.725 44.1766L348.79 44.046C349.106 43.8791 349.435 43.734 349.764 43.5889H349.855C350.184 43.4584 350.5 43.335 350.836 43.2189H350.946C351.268 43.1101 351.591 43.0158 351.927 42.936H352.043C352.372 42.8562 352.688 42.7982 353.024 42.7546H353.153C353.476 42.7184 353.798 42.6966 354.128 42.6893C356.948 42.6458 359.743 43.9372 362.073 47.6009C363.464 49.7251 364.219 52.2909 364.229 54.9285C364.183 62.7275 357.729 70.1639 351.965 72.3404C356.522 83.143 371.244 89.8829 376.892 92.1247C376.711 94.5986 376.537 96.8984 376.382 98.9516H334.397Z" fill="#EAA58B"/>
<path d="M219.549 143.512C222.221 143.512 223.512 141.074 222.434 138.07L213.398 112.99L213.469 112.917L213.314 112.751C210.817 110.113 208.491 107.276 206.357 104.262C202.277 98.4221 201.051 94.1779 202.484 92.444C202.895 91.9783 203.439 91.6905 204.02 91.6314C204.611 91.5511 205.21 91.5904 205.789 91.7475C210.397 92.8793 218.291 99.9384 227.088 111.583C237.731 125.65 258.43 153.487 258.43 153.487C260.586 151.637 263.716 148.503 267.466 144.723L297.246 187.76C290.864 193.343 284.052 198.274 276.889 202.495C275.538 197.793 272.959 193.657 269.487 190.626C266.016 187.594 261.813 185.808 257.426 185.499C253.039 185.19 248.671 186.372 244.89 188.892C241.109 191.412 238.09 195.154 236.227 199.629C218.284 184.56 204.111 157.673 197.469 143.512H219.549Z" fill="#EAA58B"/>
<path d="M318.216 108.26H327.317C309.961 120.013 317.635 142.184 317.635 142.184C317.635 142.184 293.928 160.807 309.935 183.421C308.76 182.032 307.765 180.464 306.979 178.764C306.979 178.764 303.158 182.71 297.298 187.76L267.518 144.723C281.349 130.852 303.804 108.26 318.216 108.26Z" fill="#FF7235"/>
<path d="M409.338 144.164C409.338 144.164 426.764 160.495 414.985 182.362L408.782 143.185L409.338 144.164Z" fill="#FF7235"/>
<path d="M376.408 98.9516V99.1922L375.659 98.9516H376.408Z" fill="#FF7235"/>
<path d="M352.017 72.3404C357.755 70.1639 364.209 62.7494 364.28 54.9285L379.067 62.1835C378.492 71.3392 377.66 82.8819 376.969 92.1247C371.27 89.8829 356.535 83.1431 352.017 72.3404Z" fill="#30242A"/>
<path d="M334.784 73.6753L317.712 89.1212C314.331 87.2894 311.651 84.1462 310.167 80.2701C307.65 73.1893 309.277 67.0951 311.239 59.1872C311.239 59.1872 306.237 55.4218 307.018 51.9322C307.663 49.0955 313.362 49.4873 313.362 49.4873L313.42 49.3059L332.422 57.0687C328.872 71.02 334.784 73.6753 334.784 73.6753Z" fill="#30242A"/>
<path d="M339.38 51.7799C334.746 48.0172 330.958 43.091 328.317 37.3933L345.744 45.9179C343.427 47.588 341.292 49.5552 339.38 51.7799Z" fill="#30242A"/>
<path d="M348.725 44.1122L348.79 44.0461L348.725 44.1122Z" fill="#3546AB"/>
<path d="M362.086 47.5284C359.756 43.8647 356.961 42.5733 354.14 42.6168H354.205C355.825 22.4843 351.83 11.5366 348.867 6.342C351.708 6.81354 354.513 7.52657 357.258 8.47496C377.789 15.4615 380.145 38.2203 379.57 51.7581C379.461 54.4714 379.254 58.0844 379.002 62.1617L364.216 54.9067C364.223 52.2551 363.477 49.6701 362.086 47.5284Z" fill="#3546AB"/>
<path d="M346.738 45.2504C347.054 45.0473 347.383 44.8514 347.699 44.6628C347.37 44.8514 347.054 45.0473 346.738 45.2504Z" fill="#3EC1F3"/>
<path d="M345.75 45.9178C346.06 45.6929 346.395 45.4825 346.705 45.2721C346.382 45.497 346.06 45.6929 345.75 45.9178Z" fill="#3EC1F3"/>
<path d="M350.959 43.1827C351.281 43.0738 351.604 42.9795 351.94 42.8997C351.611 42.9795 351.281 43.0738 350.959 43.1827Z" fill="#3EC1F3"/>
<path d="M347.751 44.6343C348.073 44.4527 348.396 44.2712 348.725 44.1114C348.396 44.2712 348.073 44.4527 347.751 44.6343Z" fill="#3EC1F3"/>
<path d="M353.166 42.6834C353.489 42.6464 353.811 42.6242 354.141 42.6168C353.818 42.5947 353.489 42.6464 353.166 42.6834Z" fill="#3EC1F3"/>
<path d="M352.056 42.8788C352.385 42.7986 352.701 42.7403 353.037 42.6965C352.708 42.7403 352.385 42.7986 352.056 42.8788Z" fill="#3EC1F3"/>
<path d="M349.868 43.5822C350.197 43.4515 350.513 43.328 350.849 43.2118C350.52 43.3208 350.197 43.4515 349.868 43.5822Z" fill="#3EC1F3"/>
<path d="M348.79 44.0466C349.106 43.8796 349.435 43.7343 349.765 43.5891C349.435 43.7634 349.119 43.9086 348.79 44.0466Z" fill="#3EC1F3"/>
<path d="M354.205 42.595H354.141C353.818 42.595 353.495 42.595 353.166 42.6603H353.037C352.708 42.7039 352.391 42.7619 352.056 42.8417H351.94C351.61 42.9215 351.294 43.0158 350.959 43.1246H350.849C350.52 43.2407 350.203 43.3641 349.868 43.4947H349.777C349.448 43.6398 349.132 43.7848 348.803 43.9517L348.725 43.988C348.396 44.1476 348.08 44.329 347.751 44.5103H347.699C347.37 44.699 347.054 44.8949 346.737 45.098H346.705C346.383 45.3084 346.06 45.5188 345.75 45.7437L328.323 37.2191L317.009 31.6836C320.462 18.1458 327.981 2.85234 348.874 6.18963C351.83 11.5293 355.825 22.477 354.205 42.595Z" fill="#3EC1F3"/>
<path d="M256.093 185.416C260.728 185.418 265.243 187.072 268.988 190.141C272.733 193.21 275.515 197.535 276.934 202.494C267.434 207.921 257.384 211.258 249.581 208.03C244.801 205.962 240.31 203.133 236.246 199.629C238.007 195.381 240.81 191.787 244.326 189.269C247.842 186.751 251.925 185.415 256.093 185.416Z" fill="#CA7358"/>
<path d="M315.228 226.32C293.928 210.685 308.773 184.067 309.935 183.421C293.961 160.807 317.629 142.184 317.629 142.184C317.629 142.184 309.961 120.013 327.31 108.26H333.906L334.397 98.9516H375.64L376.388 99.1911L375.691 108.26H389L408.783 143.192L414.985 182.369L414.669 182.957C414.88 183.397 415.095 183.84 415.314 184.285C419.316 193.136 419.903 200.666 418.877 206.775C416.741 219.551 407.588 226.284 407.588 226.284H315.228V226.32Z" fill="#FF7235"/>
<path d="M407.563 237.978H315.26V228.649V226.32H407.563V228.649V237.978Z" fill="#30242A"/>
<path d="M417.206 142.184H317.629" stroke="#A15842" stroke-width="4" stroke-miterlimit="10" stroke-linecap="round"/>
<path d="M414.83 183.421H309.419" stroke="#A15842" stroke-width="4" stroke-miterlimit="10" stroke-linecap="round"/>
<path d="M332.421 112.917L332.641 108.985" stroke="#A15842" stroke-width="4" stroke-miterlimit="10" stroke-linecap="round"/>
<path d="M343.663 110.922L344.253 100.279" stroke="#A15842" stroke-width="4" stroke-miterlimit="10" stroke-linecap="round"/>
<path d="M352.537 110.922L353.127 100.279" stroke="#A15842" stroke-width="4" stroke-miterlimit="10" stroke-linecap="round"/>
<path d="M361.412 110.922L362.002 100.279" stroke="#A15842" stroke-width="4" stroke-miterlimit="10" stroke-linecap="round"/>
<path d="M259.669 152.929L266.743 162.803" stroke="#A15842" stroke-width="4" stroke-linecap="round" stroke-linejoin="round"/>
<path d="M343.072 90.9711C340.455 91.9998 337.745 92.6982 334.991 93.0533" stroke="#A15842" stroke-width="4" stroke-miterlimit="10" stroke-linecap="round"/>
<path d="M206.357 104.262C206.324 106.214 205.066 107.592 203.084 107.592H183.78C181.108 107.592 178.061 105.155 176.977 102.144L171.091 85.7621C170.013 82.7586 171.304 80.3209 173.976 80.3209H193.287C195.959 80.3209 199.005 82.7586 200.083 85.7621L202.484 92.4439C201.051 94.1851 202.278 98.4583 206.357 104.262Z" fill="#F5EBDD"/>
<path d="M166.604 69.6852H171.82L172.278 70.9548C172.64 71.8998 173.225 72.7153 173.97 73.3126C174.716 73.91 175.592 74.2663 176.505 74.3428H186.458C188.117 74.3428 188.923 72.8266 188.252 70.9548L187.794 69.6852H193.009C195.688 69.6852 198.728 72.1228 199.812 75.1336L205.788 91.7548C205.21 91.5977 204.611 91.5583 204.02 91.6387C203.439 91.6978 202.895 91.9856 202.484 92.4512L200.083 85.7694C199.005 82.7659 195.959 80.3282 193.286 80.3282H173.975C171.303 80.3282 170.012 82.7659 171.09 85.7694L176.977 102.151C178.061 105.162 181.107 107.6 183.779 107.6H203.084C205.091 107.6 206.311 106.221 206.356 104.27C208.498 107.281 210.83 110.116 213.334 112.751L213.417 112.99L222.453 138.07C223.531 141.074 222.24 143.512 219.568 143.512H193.157C190.485 143.512 187.439 141.074 186.361 138.07L163.771 75.1336C162.635 72.1228 163.926 69.6852 166.604 69.6852ZM192.422 133.529C192.774 134.448 193.343 135.241 194.067 135.821C194.787 136.449 195.662 136.809 196.572 136.852H211.313C212.953 136.852 213.74 135.364 213.082 133.529C212.724 132.602 212.147 131.803 211.415 131.217C210.682 130.632 209.822 130.282 208.925 130.206H194.132C192.531 130.213 191.744 131.701 192.402 133.536L192.422 133.529Z" fill="#3546AB"/>
<path d="M194.164 130.213H208.958C209.854 130.289 210.715 130.639 211.447 131.225C212.18 131.81 212.756 132.609 213.114 133.536C213.76 135.372 212.985 136.859 211.346 136.859H196.552C195.643 136.817 194.767 136.457 194.048 135.829C193.324 135.248 192.754 134.455 192.402 133.536C191.744 131.701 192.531 130.213 194.164 130.213Z" fill="#3EC1F3"/>
<path d="M186.458 74.3428H176.506C175.593 74.2663 174.716 73.91 173.971 73.3126C173.225 72.7153 172.64 71.8998 172.278 70.9548L171.82 69.6852H187.794L188.252 70.9548C188.924 72.8266 188.117 74.3428 186.458 74.3428Z" fill="#3EC1F3"/>
<path d="M302.242 25.7926L341.884 45.7438" stroke="#30242A" stroke-width="4" stroke-linecap="round" stroke-linejoin="round"/>
<path d="M314.976 67.407C316.163 67.7625 320.049 67.0298 320.688 63.279" stroke="black" stroke-width="4" stroke-miterlimit="10" stroke-linecap="round"/>
<path d="M321.088 48.4352C320.033 48.4352 319.178 47.4737 319.178 46.2877C319.178 45.1017 320.033 44.1403 321.088 44.1403C322.143 44.1403 322.999 45.1017 322.999 46.2877C322.999 47.4737 322.143 48.4352 321.088 48.4352Z" fill="#30242A"/>
<path d="M353.882 56.0313L346.944 60.9937" stroke="#A15842" stroke-width="4" stroke-miterlimit="10" stroke-linecap="round"/>
<path d="M338.928 50.4014L331.234 57.0469" stroke="#30242A" stroke-width="4" stroke-linecap="round" stroke-linejoin="round"/>
<path d="M353.721 73.0151L333.009 73.6753" stroke="#30242A" stroke-width="4" stroke-linecap="round" stroke-linejoin="round"/>
<path d="M273.275 228.649C270.921 228.649 268.664 229.7 266.999 231.57C265.335 233.441 264.4 235.978 264.4 238.624V238.624C264.397 239.937 264.624 241.238 265.068 242.452C265.512 243.666 266.166 244.769 266.99 245.699C267.814 246.629 268.794 247.367 269.872 247.871C270.951 248.375 272.107 248.635 273.275 248.636" stroke="#FF7235" stroke-width="4" stroke-miterlimit="10"/>
<path d="M260.824 228.649C258.475 228.656 256.224 229.711 254.566 231.581C252.907 233.451 251.976 235.983 251.976 238.624C251.969 241.271 252.897 243.812 254.556 245.689C256.216 247.566 258.47 248.626 260.824 248.636" stroke="#FF7235" stroke-width="4" stroke-miterlimit="10"/>
<path d="M196.856 229.976H294.613C298.826 229.976 302.242 233.816 302.242 238.552V238.697C302.242 243.433 298.826 247.272 294.613 247.272H196.856C192.643 247.272 189.227 243.433 189.227 238.697V238.552C189.227 233.816 192.643 229.976 196.856 229.976Z" fill="#30242A"/>
<path d="M180.461 598.622L239.341 230.413L254.486 233.473L195.605 601.682L180.461 598.622Z" fill="#30242A"/>
<path d="M294.484 229.976H294.613C298.826 229.976 302.242 233.816 302.242 238.552V238.697C302.242 243.433 298.826 247.272 294.613 247.272H294.484C290.27 247.272 286.855 243.433 286.855 238.697V238.552C286.855 233.816 290.27 229.976 294.484 229.976Z" stroke="#FF7235" stroke-width="4" stroke-miterlimit="10"/>
<path d="M220.634 229.193C218.891 229.874 217.381 231.148 216.312 232.838C215.243 234.528 214.669 236.551 214.67 238.624V238.624C214.67 240.562 215.173 242.458 216.116 244.08C217.059 245.702 218.403 246.98 219.982 247.758" stroke="#FF7235" stroke-width="4" stroke-miterlimit="10" stroke-linecap="round"/>
<path d="M210.307 229.193C208.564 229.874 207.054 231.148 205.985 232.838C204.916 234.528 204.343 236.551 204.343 238.624V238.624C204.343 240.562 204.846 242.458 205.789 244.08C206.733 245.702 208.076 246.98 209.655 247.758" stroke="#FF7235" stroke-width="4" stroke-miterlimit="10" stroke-linecap="round"/>
<path d="M188.046 601.104H404.013V618.4H188.046V601.104Z" fill="#30242A"/>
<path d="M390.704 639.679C380.245 639.679 371.767 630.149 371.767 618.393C371.767 606.637 380.245 597.107 390.704 597.107C401.163 597.107 409.641 606.637 409.641 618.393C409.641 630.149 401.163 639.679 390.704 639.679Z" fill="#30242A"/>
<path d="M390.704 626.373C386.783 626.373 383.604 622.8 383.604 618.393C383.604 613.985 386.783 610.412 390.704 610.412C394.625 610.412 397.804 613.985 397.804 618.393C397.804 622.8 394.625 626.373 390.704 626.373Z" fill="#FFB494"/>
<path d="M184.69 639.679C174.231 639.679 165.753 630.149 165.753 618.393C165.753 606.637 174.231 597.107 184.69 597.107C195.148 597.107 203.626 606.637 203.626 618.393C203.626 630.149 195.148 639.679 184.69 639.679Z" fill="#30242A"/>
<path d="M184.69 626.373C180.769 626.373 177.59 622.8 177.59 618.393C177.59 613.985 180.769 610.412 184.69 610.412C188.611 610.412 191.789 613.985 191.789 618.393C191.789 622.8 188.611 626.373 184.69 626.373Z" fill="#FFB494"/>
<path d="M361.118 618.393H420.284C420.169 609.659 417.002 601.326 411.467 595.195C405.931 589.064 398.472 585.627 390.701 585.627C382.93 585.627 375.471 589.064 369.935 595.195C364.4 601.326 361.232 609.659 361.118 618.393Z" fill="#FF7235"/>
<path d="M155.11 618.393H214.276C214.161 609.659 210.994 601.326 205.459 595.195C199.923 589.064 192.464 585.627 184.693 585.627C176.922 585.627 169.463 589.064 163.927 595.195C158.392 601.326 155.224 609.659 155.11 618.393Z" fill="#FF7235"/>
<path d="M332.241 543.239H276.902C276.257 532.356 274.424 517.164 272.171 496.299C267.421 452.24 263.858 412.185 268.608 380.147C273.359 348.109 315.26 237.95 315.26 237.95H394.177C400.373 298.057 348.622 366.406 332.151 394.795C314.337 425.505 329.182 445.529 338.683 475.564C348.183 505.6 332.151 518.289 332.151 518.289C332.642 526.595 332.672 534.928 332.241 543.239Z" fill="#4856DF"/>
<path d="M323.296 593.124H245.379C250.885 578.614 267.769 571.439 273.359 565.722C276.799 562.21 277.599 555.362 276.902 543.231H332.241C331.034 566.447 326.432 583.736 323.296 593.124Z" fill="#30242A"/>
<path d="M320.275 601.104H243.662C243.829 598.354 244.409 595.656 245.379 593.124H323.295C322.417 595.843 321.409 598.507 320.275 601.104Z" fill="#3EC1F3"/>
<path d="M310.722 520.625V542.462" stroke="#3EC1F3" stroke-width="4" stroke-miterlimit="10" stroke-linecap="round"/>
<path d="M324.134 520.625V542.462" stroke="#3EC1F3" stroke-width="4" stroke-miterlimit="10" stroke-linecap="round"/>
<path d="M297.31 520.625V542.462" stroke="#3EC1F3" stroke-width="4" stroke-miterlimit="10" stroke-linecap="round"/>
<path d="M283.898 520.625V542.462" stroke="#3EC1F3" stroke-width="4" stroke-miterlimit="10" stroke-linecap="round"/>
<path d="M332.009 519.957H275.211" stroke="#3EC1F3" stroke-width="4" stroke-miterlimit="10" stroke-linecap="round"/>
<path d="M296.349 289.583C298.285 284.2 300.131 278.991 301.906 274.094L330.95 268.362V268.478C331.524 272.15 330.777 275.929 328.873 278.982C326.969 282.035 324.064 284.113 320.798 284.758L296.349 289.583Z" fill="#3EC1F3"/>
<path d="M285.673 561.195L276.502 556.972" stroke="white" stroke-width="4" stroke-linecap="round" stroke-linejoin="round"/>
<path d="M280.936 571.177L273.275 564.227" stroke="white" stroke-width="4" stroke-linecap="round" stroke-linejoin="round"/>
<path d="M185.677 136.184C185.677 136.184 175.518 136.634 174.705 126.658C174.705 126.658 167.45 122.908 169.348 115.457C169.348 115.457 162.713 113.324 164.61 105.866C164.733 105.394 160.841 104.545 161.035 98.4003C161.319 89.4331 166.727 82.9762 169.09 82.3087C176.189 80.3136 173.491 93.2782 173.827 92.9518C177.964 88.9615 184.005 87.1478 186.161 89.1792C189.918 92.7196 187.31 97.4498 187.31 97.4498C187.31 97.4498 192.125 96.173 194.481 100.083C197.346 104.828 192.222 109.254 192.222 109.254C192.222 109.254 197.592 109.928 196.695 115.515C195.701 121.761 187.355 123.154 183.399 129.698L185.677 136.184Z" fill="#EAA58B"/>
<path d="M192.441 108.107C186.787 110.494 176.951 115.783 174.156 124.511" stroke="#A15842" stroke-width="4" stroke-linecap="round" stroke-linejoin="round"/>
<path d="M186.103 97.0073C181.262 99.9746 172.71 106.069 168.857 114.02" stroke="#A15842" stroke-width="4" stroke-linecap="round" stroke-linejoin="round"/>
<path d="M172.911 91.9288C169.729 95.1065 166.275 99.3362 164.165 104.262" stroke="#A15842" stroke-width="4" stroke-linecap="round" stroke-linejoin="round"/>
<path d="M375.614 108.26C375.614 108.26 354.405 144.165 360.227 178.764C364.371 203.372 414.075 224.695 443.068 231.95V212.681C443.068 212.681 382.714 196.059 375.614 166.125C371.309 147.988 388.632 108.26 388.632 108.26" fill="#F5EBDD"/>
<path d="M235.382 224.695C238.932 214.712 250.175 204.076 263.193 198.751C288.21 188.529 348.99 203.409 348.99 203.409L358.097 181.549L402.909 206.216C396.455 220.371 388.71 232.269 380.797 240.496C378.103 236.746 374.488 233.969 370.401 232.509C366.314 231.049 361.936 230.971 357.81 232.285C353.684 233.599 349.993 236.247 347.195 239.9C344.397 243.552 342.615 248.048 342.071 252.829C317.293 250.653 289.888 237.92 282.117 230.063C282.117 230.063 277.386 234.721 272.061 235.381C272.061 237.376 280.342 263.98 265.549 257.995C265.549 257.995 261.412 263.98 255.493 257.335C255.493 257.335 251.35 263.98 245.431 257.995C245.431 257.995 242.204 260.266 237.744 254.672C232.426 247.911 230.851 237.384 235.382 224.695Z" fill="#EAA58B"/>
<path d="M388.632 108.26H390.097C402.109 108.26 421.775 118.243 419.406 144.099C417.327 165.744 411.738 186.777 402.916 206.158L358.103 181.491L388.632 108.26Z" fill="#FF7235"/>
<path d="M363.777 231.304C367.041 231.301 370.263 232.12 373.209 233.701C376.154 235.282 378.747 237.584 380.797 240.438C379.157 242.158 377.433 243.773 375.633 245.277C367.301 252.126 355.057 253.881 342.071 252.742C342.753 246.814 345.333 241.368 349.328 237.423C353.323 233.477 358.459 231.302 363.777 231.304Z" fill="#CA7358"/>
<path d="M265.032 256.878C262.451 251.074 256.59 236.027 260.824 225.986" stroke="#A15842" stroke-width="4" stroke-linecap="round" stroke-linejoin="round"/>
<path d="M364.371 205.367L350.423 202.154" stroke="#A15842" stroke-width="4" stroke-linecap="round" stroke-linejoin="round"/>
<path d="M254.557 256.617C251.872 250.493 246.063 235.73 250.175 225.986" stroke="#A15842" stroke-width="4" stroke-linecap="round" stroke-linejoin="round"/>
<path d="M244.23 257.342C241.649 251.495 235.911 235.969 240.113 225.986" stroke="#A15842" stroke-width="4" stroke-linecap="round" stroke-linejoin="round"/>
</svg>
